<svg width="30" height="24" viewBox="0 0 100 100" fill="none" xmlns="http://www.w3.org/2000/svg">
<path d="M70.21 94.56Q67.23 94.56 64.19 93.18Q61.16 91.79 57.65 89.24L57.65 89.24Q54.44 87.00 51.27 84.32L51.27 84.32Q43.85 78.17 37.70 75.62L37.70 75.62Q34.14 74.13 30.05 74.13L30.05 74.13L29.04 74.13Q28.77 74.13 27.98 74.21L27.98 74.21L41.39 11.86Q35.32 14.36 32.07 19.30Q28.82 24.25 28.82 31.46L28.82 31.46Q28.82 34.22 29.43 35.98L29.43 35.98Q29.61 36.55 29.87 36.99L29.87 36.99Q30.05 37.30 30.05 37.61L30.05 37.61Q25.17 37.61 22.93 35.63L22.93 35.63Q20.42 33.52 20.42 28.86L20.42 28.86Q20.42 25.92 21.70 23.04Q22.97 20.16 25.30 17.48L25.30 17.48Q27.54 14.89 30.60 12.67Q33.65 10.45 37.17 8.82L37.17 8.82Q44.64 5.44 52.02 5.44L52.02 5.44Q53.65 5.44 55.63 5.66L55.63 5.66L41.78 70.26Q43.94 70.74 46.15 71.71Q48.37 72.68 51.23 74.21L51.23 74.21L56.15 76.85Q61.87 79.97 66.48 81.16L66.48 81.16Q69.12 81.86 72.02 81.86L72.02 81.86Q76.10 81.86 79.58 80.41L79.58 80.41Q78.78 87.00 76.37 90.74L76.37 90.74Q75.18 92.58 73.62 93.57Q72.06 94.56 70.21 94.56L70.21 94.56Z" fill="#ffffff"></path>
<defs>
<linearGradient id="paint0_linear_891_55" x1="-2.06656" y1="11.8052" x2="32.4498" y2="11.8052" gradientUnits="userSpaceOnUse">
<stop stop-color="#BD00FF"/>
<stop offset="1" stop-color="#5369DD"/>
</linearGradient>
</defs>
</svg>
